<mxfile host="app.diagrams.net" modified="2021-02-13T22:27:26.265Z" agent="5.0 (Macintosh; Intel Mac OS X 10_15_7) AppleWebKit/537.36 (KHTML, like Gecko) Chrome/88.0.4324.146 Safari/537.36" etag="4hVpV76cbaFQ9CG2ckFN" version="14.1.2" type="github">
  <diagram id="yQvZ_5fN5NvXAej7emdE" name="Page-1">
    <mxGraphModel dx="954" dy="554" grid="1" gridSize="10" guides="1" tooltips="1" connect="1" arrows="1" fold="1" page="1" pageScale="1" pageWidth="850" pageHeight="1100" math="0" shadow="0">
      <root>
        <mxCell id="0" />
        <mxCell id="1" parent="0" />
        <mxCell id="afrnsTOVWtiStNxKSt7p-11" value="" style="endArrow=none;html=1;shadow=0;strokeWidth=1;" parent="1" edge="1">
          <mxGeometry width="50" height="50" relative="1" as="geometry">
            <mxPoint x="118" y="800" as="sourcePoint" />
            <mxPoint x="117.64" y="510" as="targetPoint" />
          </mxGeometry>
        </mxCell>
        <mxCell id="afrnsTOVWtiStNxKSt7p-12" value="" style="endArrow=none;html=1;shadow=0;strokeWidth=1;" parent="1" edge="1">
          <mxGeometry width="50" height="50" relative="1" as="geometry">
            <mxPoint x="298" y="800" as="sourcePoint" />
            <mxPoint x="260" y="476" as="targetPoint" />
          </mxGeometry>
        </mxCell>
        <mxCell id="afrnsTOVWtiStNxKSt7p-13" value="" style="endArrow=none;html=1;shadow=0;strokeWidth=1;" parent="1" edge="1">
          <mxGeometry width="50" height="50" relative="1" as="geometry">
            <mxPoint x="274" y="473" as="sourcePoint" />
            <mxPoint x="101.64" y="513" as="targetPoint" />
          </mxGeometry>
        </mxCell>
        <mxCell id="afrnsTOVWtiStNxKSt7p-14" value="" style="endArrow=none;html=1;shadow=0;strokeWidth=1;" parent="1" edge="1">
          <mxGeometry width="50" height="50" relative="1" as="geometry">
            <mxPoint x="111.64" y="670" as="sourcePoint" />
            <mxPoint x="330" y="670" as="targetPoint" />
          </mxGeometry>
        </mxCell>
        <mxCell id="afrnsTOVWtiStNxKSt7p-22" value="" style="endArrow=none;html=1;shadow=0;strokeWidth=1;" parent="1" edge="1">
          <mxGeometry width="50" height="50" relative="1" as="geometry">
            <mxPoint x="485" y="800" as="sourcePoint" />
            <mxPoint x="520" y="470" as="targetPoint" />
          </mxGeometry>
        </mxCell>
        <mxCell id="afrnsTOVWtiStNxKSt7p-23" value="" style="endArrow=none;html=1;shadow=0;strokeWidth=1;" parent="1" edge="1">
          <mxGeometry width="50" height="50" relative="1" as="geometry">
            <mxPoint x="675" y="800" as="sourcePoint" />
            <mxPoint x="640" y="470" as="targetPoint" />
          </mxGeometry>
        </mxCell>
        <mxCell id="afrnsTOVWtiStNxKSt7p-24" value="" style="endArrow=none;html=1;shadow=0;strokeWidth=1;" parent="1" edge="1">
          <mxGeometry width="50" height="50" relative="1" as="geometry">
            <mxPoint x="650" y="470" as="sourcePoint" />
            <mxPoint x="510" y="470" as="targetPoint" />
          </mxGeometry>
        </mxCell>
        <mxCell id="afrnsTOVWtiStNxKSt7p-25" value="" style="endArrow=none;html=1;shadow=0;strokeWidth=1;" parent="1" edge="1">
          <mxGeometry width="50" height="50" relative="1" as="geometry">
            <mxPoint x="486" y="670" as="sourcePoint" />
            <mxPoint x="673" y="670" as="targetPoint" />
          </mxGeometry>
        </mxCell>
        <mxCell id="JYz2w0AAaul1VPx4wIsV-1" value="" style="endArrow=none;html=1;shadow=0;strokeWidth=1;" edge="1" parent="1">
          <mxGeometry width="50" height="50" relative="1" as="geometry">
            <mxPoint x="116.36" y="400" as="sourcePoint" />
            <mxPoint x="115.99999999999987" y="110" as="targetPoint" />
          </mxGeometry>
        </mxCell>
        <mxCell id="JYz2w0AAaul1VPx4wIsV-2" value="" style="endArrow=none;html=1;shadow=0;strokeWidth=1;" edge="1" parent="1">
          <mxGeometry width="50" height="50" relative="1" as="geometry">
            <mxPoint x="296.36" y="400" as="sourcePoint" />
            <mxPoint x="258.36" y="80" as="targetPoint" />
          </mxGeometry>
        </mxCell>
        <mxCell id="JYz2w0AAaul1VPx4wIsV-3" value="" style="endArrow=none;html=1;shadow=0;strokeWidth=1;" edge="1" parent="1">
          <mxGeometry width="50" height="50" relative="1" as="geometry">
            <mxPoint x="272.36" y="73" as="sourcePoint" />
            <mxPoint x="99.99999999999987" y="113" as="targetPoint" />
          </mxGeometry>
        </mxCell>
        <mxCell id="JYz2w0AAaul1VPx4wIsV-4" value="" style="endArrow=none;html=1;shadow=0;strokeWidth=1;" edge="1" parent="1">
          <mxGeometry width="50" height="50" relative="1" as="geometry">
            <mxPoint x="109.99999999999987" y="270" as="sourcePoint" />
            <mxPoint x="328.36" y="270" as="targetPoint" />
          </mxGeometry>
        </mxCell>
        <mxCell id="JYz2w0AAaul1VPx4wIsV-5" value="" style="endArrow=none;html=1;shadow=0;strokeWidth=1;" edge="1" parent="1">
          <mxGeometry width="50" height="50" relative="1" as="geometry">
            <mxPoint x="483.36" y="400" as="sourcePoint" />
            <mxPoint x="518.36" y="70" as="targetPoint" />
          </mxGeometry>
        </mxCell>
        <mxCell id="JYz2w0AAaul1VPx4wIsV-6" value="" style="endArrow=none;html=1;shadow=0;strokeWidth=1;" edge="1" parent="1">
          <mxGeometry width="50" height="50" relative="1" as="geometry">
            <mxPoint x="673.36" y="400" as="sourcePoint" />
            <mxPoint x="638.36" y="70" as="targetPoint" />
          </mxGeometry>
        </mxCell>
        <mxCell id="JYz2w0AAaul1VPx4wIsV-7" value="" style="endArrow=none;html=1;shadow=0;strokeWidth=1;" edge="1" parent="1">
          <mxGeometry width="50" height="50" relative="1" as="geometry">
            <mxPoint x="648.36" y="70" as="sourcePoint" />
            <mxPoint x="508.36" y="70" as="targetPoint" />
          </mxGeometry>
        </mxCell>
        <mxCell id="JYz2w0AAaul1VPx4wIsV-8" value="" style="endArrow=none;html=1;shadow=0;strokeWidth=1;" edge="1" parent="1">
          <mxGeometry width="50" height="50" relative="1" as="geometry">
            <mxPoint x="484.36" y="270" as="sourcePoint" />
            <mxPoint x="671.36" y="270" as="targetPoint" />
          </mxGeometry>
        </mxCell>
        <mxCell id="JYz2w0AAaul1VPx4wIsV-9" value="" style="endArrow=none;html=1;strokeWidth=1;dashed=1;" edge="1" parent="1">
          <mxGeometry width="50" height="50" relative="1" as="geometry">
            <mxPoint x="93" y="510" as="sourcePoint" />
            <mxPoint x="278" y="510" as="targetPoint" />
          </mxGeometry>
        </mxCell>
        <mxCell id="JYz2w0AAaul1VPx4wIsV-11" value="" style="endArrow=classic;html=1;strokeWidth=1;" edge="1" parent="1">
          <mxGeometry width="50" height="50" relative="1" as="geometry">
            <mxPoint x="175" y="444" as="sourcePoint" />
            <mxPoint x="154" y="506" as="targetPoint" />
          </mxGeometry>
        </mxCell>
        <mxCell id="JYz2w0AAaul1VPx4wIsV-36" value="13 deg" style="edgeLabel;html=1;align=center;verticalAlign=middle;resizable=0;points=[];" vertex="1" connectable="0" parent="JYz2w0AAaul1VPx4wIsV-11">
          <mxGeometry x="-0.4839" y="-1" relative="1" as="geometry">
            <mxPoint as="offset" />
          </mxGeometry>
        </mxCell>
        <mxCell id="JYz2w0AAaul1VPx4wIsV-17" value="" style="endArrow=none;html=1;strokeWidth=1;dashed=1;" edge="1" parent="1">
          <mxGeometry width="50" height="50" relative="1" as="geometry">
            <mxPoint x="190" y="520" as="sourcePoint" />
            <mxPoint x="180" y="480" as="targetPoint" />
            <Array as="points">
              <mxPoint x="190" y="500" />
            </Array>
          </mxGeometry>
        </mxCell>
        <mxCell id="JYz2w0AAaul1VPx4wIsV-18" value="" style="endArrow=none;html=1;strokeWidth=1;dashed=1;" edge="1" parent="1">
          <mxGeometry width="50" height="50" relative="1" as="geometry">
            <mxPoint x="232" y="474" as="sourcePoint" />
            <mxPoint x="273" y="498" as="targetPoint" />
            <Array as="points">
              <mxPoint x="250" y="490" />
            </Array>
          </mxGeometry>
        </mxCell>
        <mxCell id="JYz2w0AAaul1VPx4wIsV-19" value="" style="endArrow=classic;html=1;strokeWidth=1;" edge="1" parent="1">
          <mxGeometry width="50" height="50" relative="1" as="geometry">
            <mxPoint x="320" y="473" as="sourcePoint" />
            <mxPoint x="255" y="485" as="targetPoint" />
          </mxGeometry>
        </mxCell>
        <mxCell id="JYz2w0AAaul1VPx4wIsV-20" value="&amp;nbsp;84 deg&amp;nbsp;" style="edgeLabel;html=1;align=center;verticalAlign=middle;resizable=0;points=[];" vertex="1" connectable="0" parent="JYz2w0AAaul1VPx4wIsV-19">
          <mxGeometry x="-0.6075" relative="1" as="geometry">
            <mxPoint as="offset" />
          </mxGeometry>
        </mxCell>
        <mxCell id="JYz2w0AAaul1VPx4wIsV-22" value="" style="endArrow=none;html=1;strokeWidth=1;dashed=1;" edge="1" parent="1">
          <mxGeometry width="50" height="50" relative="1" as="geometry">
            <mxPoint x="90" y="800" as="sourcePoint" />
            <mxPoint x="330" y="800" as="targetPoint" />
          </mxGeometry>
        </mxCell>
        <mxCell id="JYz2w0AAaul1VPx4wIsV-23" value="" style="endArrow=none;html=1;strokeWidth=1;dashed=1;" edge="1" parent="1">
          <mxGeometry width="50" height="50" relative="1" as="geometry">
            <mxPoint x="310" y="770" as="sourcePoint" />
            <mxPoint x="283" y="814" as="targetPoint" />
            <Array as="points">
              <mxPoint x="283" y="790" />
            </Array>
          </mxGeometry>
        </mxCell>
        <mxCell id="JYz2w0AAaul1VPx4wIsV-24" value="" style="endArrow=classic;html=1;strokeWidth=1;" edge="1" parent="1">
          <mxGeometry width="50" height="50" relative="1" as="geometry">
            <mxPoint x="240" y="740" as="sourcePoint" />
            <mxPoint x="290" y="792" as="targetPoint" />
          </mxGeometry>
        </mxCell>
        <mxCell id="JYz2w0AAaul1VPx4wIsV-25" value="83 deg" style="edgeLabel;html=1;align=center;verticalAlign=middle;resizable=0;points=[];" vertex="1" connectable="0" parent="JYz2w0AAaul1VPx4wIsV-24">
          <mxGeometry x="-0.6075" relative="1" as="geometry">
            <mxPoint as="offset" />
          </mxGeometry>
        </mxCell>
        <mxCell id="JYz2w0AAaul1VPx4wIsV-26" value="" style="endArrow=none;html=1;strokeWidth=1;dashed=1;" edge="1" parent="1">
          <mxGeometry width="50" height="50" relative="1" as="geometry">
            <mxPoint x="460" y="800" as="sourcePoint" />
            <mxPoint x="700" y="800" as="targetPoint" />
          </mxGeometry>
        </mxCell>
        <mxCell id="JYz2w0AAaul1VPx4wIsV-27" value="" style="endArrow=none;html=1;strokeWidth=1;dashed=1;" edge="1" parent="1">
          <mxGeometry width="50" height="50" relative="1" as="geometry">
            <mxPoint x="520" y="804" as="sourcePoint" />
            <mxPoint x="480" y="760" as="targetPoint" />
            <Array as="points">
              <mxPoint x="510" y="780" />
            </Array>
          </mxGeometry>
        </mxCell>
        <mxCell id="JYz2w0AAaul1VPx4wIsV-28" value="" style="endArrow=classic;html=1;strokeWidth=1;" edge="1" parent="1">
          <mxGeometry width="50" height="50" relative="1" as="geometry">
            <mxPoint x="540" y="750" as="sourcePoint" />
            <mxPoint x="500" y="790" as="targetPoint" />
          </mxGeometry>
        </mxCell>
        <mxCell id="JYz2w0AAaul1VPx4wIsV-29" value="84 deg" style="edgeLabel;html=1;align=center;verticalAlign=middle;resizable=0;points=[];" vertex="1" connectable="0" parent="JYz2w0AAaul1VPx4wIsV-28">
          <mxGeometry x="-0.6075" relative="1" as="geometry">
            <mxPoint as="offset" />
          </mxGeometry>
        </mxCell>
        <mxCell id="JYz2w0AAaul1VPx4wIsV-30" value="" style="endArrow=none;html=1;strokeWidth=1;dashed=1;" edge="1" parent="1">
          <mxGeometry width="50" height="50" relative="1" as="geometry">
            <mxPoint x="485" y="693" as="sourcePoint" />
            <mxPoint x="485" y="810" as="targetPoint" />
          </mxGeometry>
        </mxCell>
        <mxCell id="JYz2w0AAaul1VPx4wIsV-31" value="" style="endArrow=classic;html=1;strokeWidth=1;" edge="1" parent="1">
          <mxGeometry width="50" height="50" relative="1" as="geometry">
            <mxPoint x="410" y="700" as="sourcePoint" />
            <mxPoint x="490" y="710" as="targetPoint" />
          </mxGeometry>
        </mxCell>
        <mxCell id="JYz2w0AAaul1VPx4wIsV-32" value="6 deg" style="edgeLabel;html=1;align=center;verticalAlign=middle;resizable=0;points=[];" vertex="1" connectable="0" parent="JYz2w0AAaul1VPx4wIsV-31">
          <mxGeometry x="-0.6075" relative="1" as="geometry">
            <mxPoint as="offset" />
          </mxGeometry>
        </mxCell>
        <mxCell id="JYz2w0AAaul1VPx4wIsV-33" value="" style="endArrow=none;html=1;strokeWidth=1;dashed=1;" edge="1" parent="1">
          <mxGeometry width="50" height="50" relative="1" as="geometry">
            <mxPoint x="298" y="690" as="sourcePoint" />
            <mxPoint x="298" y="810" as="targetPoint" />
          </mxGeometry>
        </mxCell>
        <mxCell id="JYz2w0AAaul1VPx4wIsV-34" value="" style="endArrow=classic;html=1;strokeWidth=1;" edge="1" parent="1">
          <mxGeometry width="50" height="50" relative="1" as="geometry">
            <mxPoint x="360" y="690" as="sourcePoint" />
            <mxPoint x="290" y="700" as="targetPoint" />
          </mxGeometry>
        </mxCell>
        <mxCell id="JYz2w0AAaul1VPx4wIsV-35" value="7 deg" style="edgeLabel;html=1;align=center;verticalAlign=middle;resizable=0;points=[];" vertex="1" connectable="0" parent="JYz2w0AAaul1VPx4wIsV-34">
          <mxGeometry x="-0.6075" relative="1" as="geometry">
            <mxPoint as="offset" />
          </mxGeometry>
        </mxCell>
      </root>
    </mxGraphModel>
  </diagram>
</mxfile>
